<svg xmlns="http://www.w3.org/2000/svg" width="16.708" height="14.624" viewBox="0 0 16.708 14.624"><g transform="translate(304.681 -396.943)"><path d="M-304.681,408.847v-11.1a1.234,1.234,0,0,1,1.31-.8q7.044.025,14.087,0a1.234,1.234,0,0,1,1.31.8v11.1c-.158.35-.363.714-.761.744-.7.052-1.4.015-2.11.015,0-.821-.008-1.625.006-2.428a1.285,1.285,0,0,1,.13-.526,3.128,3.128,0,0,0,.338-1.977,3.02,3.02,0,0,0-2.333-2.587,2.9,2.9,0,0,0-3.195,1.1,3.044,3.044,0,0,0-.3,3.463c.044.087.12.176.121.264.009.9.006,1.8.006,2.722h-.387c-2.3,0-4.609-.014-6.914.009A1.229,1.229,0,0,1-304.681,408.847Zm14.083-9.5h-11.448v1.02H-290.6Zm-7.313,3.136v-1.023h-4.136v1.023Z" transform="translate(0)" fill="#ff3a00"/><path d="M-164.661,491a1.915,1.915,0,0,1,1.938-1.917,1.916,1.916,0,0,1,1.917,1.938,1.915,1.915,0,0,1-1.938,1.917A1.916,1.916,0,0,1-164.661,491Z" transform="translate(-130.649 -85.943)" fill="#ff3a00"/><path d="M-156.561,566.646v-3.487a6.385,6.385,0,0,0,1.445.331,6.143,6.143,0,0,0,1.426-.329v3.482c-.332-.22-.637-.421-.941-.624-.491-.327-.49-.327-.992.007C-155.921,566.223-156.219,566.42-156.561,566.646Z" transform="translate(-138.284 -155.078)" fill="#ff3a00"/></g></svg>