<svg xmlns="http://www.w3.org/2000/svg" xmlns:xlink="http://www.w3.org/1999/xlink" width="186.46" height="85.31" viewBox="0 0 186.46 85.31">
  <defs>
    <filter id="Path_1" x="0" y="0" width="76.018" height="85.31" filterUnits="userSpaceOnUse">
      <feOffset dy="3" input="SourceAlpha"/>
      <feGaussianBlur stdDeviation="3" result="blur"/>
      <feFlood flood-opacity="0.2"/>
      <feComposite operator="in" in2="blur"/>
      <feComposite in="SourceGraphic"/>
    </filter>
    <filter id="Path_2" x="48.586" y="52.356" width="20.093" height="23.162" filterUnits="userSpaceOnUse">
      <feOffset dx="0.875" dy="0.875" input="SourceAlpha"/>
      <feGaussianBlur stdDeviation="0.875" result="blur-2"/>
      <feFlood flood-opacity="0.702"/>
      <feComposite operator="in" in2="blur-2"/>
      <feComposite in="SourceGraphic"/>
    </filter>
    <filter id="Path_3" x="33.391" y="52.855" width="20.845" height="23.913" filterUnits="userSpaceOnUse">
      <feOffset dx="1.75" dy="1.75" input="SourceAlpha"/>
      <feGaussianBlur stdDeviation="1" result="blur-3"/>
      <feFlood flood-opacity="0.161"/>
      <feComposite operator="in" in2="blur-3"/>
      <feComposite in="SourceGraphic"/>
    </filter>
    <filter id="Ellipse_1" x="35.528" y="31.822" width="30.593" height="30.593" filterUnits="userSpaceOnUse">
      <feOffset dx="0.875" dy="0.875" input="SourceAlpha"/>
      <feGaussianBlur stdDeviation="0.875" result="blur-4"/>
      <feFlood flood-opacity="0.702"/>
      <feComposite operator="in" in2="blur-4"/>
      <feComposite in="SourceGraphic"/>
    </filter>
  </defs>
  <g id="Group_4195" data-name="Group 4195" transform="translate(-75.396 -25.252)">
    <g id="Group_314" data-name="Group 314" transform="translate(12.856 2)">
      <g id="Group_4" data-name="Group 4" transform="translate(72.288 30)">
        <g id="Group_2" data-name="Group 2" transform="translate(0 0)">
          <g id="Group_1" data-name="Group 1">
            <g transform="matrix(1, 0, 0, 1, -9.75, -6.75)" filter="url(#Path_1)">
              <path id="Path_1-2" data-name="Path 1" d="M650.519,454.144h-1.479c-.212-.079-.422-.164-.636-.237a40.894,40.894,0,0,1-18.2-12.472,30.38,30.38,0,0,1-6.179-11.137,68.152,68.152,0,0,1-2.483-17.713,114.138,114.138,0,0,1,.608-13.836c.217-2.27.555-2.706,2.534-3.281q12-3.484,24-6.973a3.726,3.726,0,0,1,2.177,0c2.583.768,5.174,1.508,7.763,2.259q8.386,2.434,16.775,4.862a2.4,2.4,0,0,1,1.88,2.179c.438,3.567.631,7.154.727,10.744a87.136,87.136,0,0,1-.324,9.743,64.657,64.657,0,0,1-1.394,9.108,30.8,30.8,0,0,1-3.64,9.491,40.8,40.8,0,0,1-14.768,14.044A43.486,43.486,0,0,1,650.519,454.144Z" transform="translate(-611.77 -381.58)" fill="#01288f" stroke="#fff" stroke-width="1.5"/>
            </g>
          </g>
        </g>
        <g transform="matrix(1, 0, 0, 1, -9.75, -6.75)" filter="url(#Path_2)">
          <path id="Path_2-2" data-name="Path 2" d="M740.65,531.85l7.354,13.4,1.4-7.232,6.091,3.059-7.214-13.74Z" transform="translate(-690.31 -473.23)" fill="#fdc10d"/>
        </g>
        <g transform="matrix(1, 0, 0, 1, -9.75, -6.75)" filter="url(#Path_3)">
          <path id="Path_3-2" data-name="Path 3" d="M709.429,531.85l-7.354,13.4-1.4-7.232-6.091,3.059,7.214-13.74Z" transform="translate(-659.94 -473.23)" fill="#fdc10d"/>
        </g>
        <path id="Path_4" data-name="Path 4" d="M681.121,470.09a11.475,11.475,0,0,0,2.78,3.406,1.348,1.348,0,0,1,.16.187c-.027.163-.165.149-.276.163a3.6,3.6,0,0,1-.465.01q-7.717,0-15.434,0a1.992,1.992,0,0,1-1.735-.654.136.136,0,0,0-.214-.033c-.112-.108-.067-.247-.067-.373,0-4.141-.062-8.284.018-12.423.027-1.4.162-3.664.135-6.311-.026-2.45-.038-3.675-.066-3.919a11.461,11.461,0,0,1-.055-2.274c.024-.262.044-.338.08-.759a12.045,12.045,0,0,0,.177-1.3.221.221,0,0,1,.04-.146.234.234,0,0,1,.184-.076c.107,0,.214,0,.322,0h20.049c.279,0,.567.014.616-.37.241.092.216.388.4.523a2.144,2.144,0,0,0,1.93.508,8.165,8.165,0,0,1,1.106-.048c.872.04,1.738-.092,2.608-.073.163,0,.338-.03.47.111a2.39,2.39,0,0,1,.205,1.176c.015,2.442.009,4.885.01,7.328a.381.381,0,0,1-.345.015,11.39,11.39,0,0,0-4.149-.353c-.119.011-.242.02-.324-.1.019-.116.117-.175.182-.259a.468.468,0,0,0-.252-.785,1.6,1.6,0,0,0-.462-.041H671.413a1.507,1.507,0,0,0-.392.029.473.473,0,0,0,0,.933,2.066,2.066,0,0,0,.535.029H688.4a2.769,2.769,0,0,1,.641.031c.18.075.168.161-.005.215-.192.06-.393.094-.59.137a10.544,10.544,0,0,0-4.806,2.454c-.423.372-.779.8-1.161,1.2a.617.617,0,0,1-.378.248,4.369,4.369,0,0,1-.608.02h-9.98a2.53,2.53,0,0,0-.535.027.41.41,0,0,0-.363.423.428.428,0,0,0,.351.438,2.172,2.172,0,0,0,.534.032h9.229a2.11,2.11,0,0,1,.6.039c.239.126.1.286.022.419a10.877,10.877,0,0,0-.984,2.486,6.285,6.285,0,0,0-.142.663c-.082.225.009.524-.278.665a2.1,2.1,0,0,1-.569.036h-7.835a1.877,1.877,0,0,0-.534.035.461.461,0,0,0-.016.909,2.038,2.038,0,0,0,.6.049h7.656a2.1,2.1,0,0,1,.569.035.307.307,0,0,1,.112.068c.156.3.011.628.118.929a11.069,11.069,0,0,0,.4,2.345.544.544,0,0,1,.022.315l.086.432c-.171.152-.383.109-.581.109q-4.168.005-8.336,0a2.487,2.487,0,0,0-.605.038.479.479,0,0,0-.427.5.466.466,0,0,0,.476.445,4.55,4.55,0,0,0,.5.013q4.454,0,8.908,0A.965.965,0,0,1,681.121,470.09Z" transform="translate(-650.745 -425.835)" fill="#e3e3e3"/>
        <path id="Path_5" data-name="Path 5" d="M729.3,434.914c-.163-.133-.172-.35-.281-.511v-5.576c.083-.037.117.023.155.062q2.052,2.047,4.1,4.1a.808.808,0,0,1,.094.144,7.528,7.528,0,0,0-.018,1.141.7.7,0,0,1-.73.794A8,8,0,0,1,729.3,434.914Z" transform="translate(-692.396 -415.023)" fill="#45a1ce"/>
        <path id="Path_6" data-name="Path 6" d="M666.112,526.484c.022-.123-.035-.256.061-.41a1.791,1.791,0,0,0,1.854.99c5.266-.018,10.531-.009,15.8-.012.137,0,.288.052.412-.058l1.156.774q-8.953,0-17.906,0A1.4,1.4,0,0,1,666.112,526.484Z" transform="translate(-650.919 -479.146)" fill="#cfcfcf"/>
        <path id="Path_7" data-name="Path 7" d="M729.847,443.264c.112-.114.24-.076.364-.03a3.544,3.544,0,0,0,1.82.118,3.074,3.074,0,0,1,.853-.007,1.326,1.326,0,0,0,.789-.245c.115-.057.115-.169.115-.278,0-.333,0-.666,0-1,0-.13-.018-.267.128-.343.7.684,1.4,1.365,2.1,2.057.045.045.274.1.069.237q-2.352.064-4.7.129A1.608,1.608,0,0,1,729.847,443.264Z" transform="translate(-692.94 -423.373)" fill="#3b8eb8"/>
        <path id="Path_8" data-name="Path 8" d="M690.053,515.873h-9.984a.611.611,0,0,1-.674-.547.639.639,0,0,1,.583-.655,2.146,2.146,0,0,1,.321-.009h4.76l4.437,0Z" transform="translate(-659.676 -471.618)" fill="#919191"/>
        <path id="Path_9" data-name="Path 9" d="M698.257,469.595l-.14.006-12.281-.008c-1.91,0-3.819,0-5.729,0a.6.6,0,0,1-.617-.855.578.578,0,0,1,.472-.34,2.9,2.9,0,0,1,.357-.01H697.9c.328-.006.631.052.76.4C698.78,469.115,698.654,469.347,698.257,469.595Z" transform="translate(-659.697 -441.111)" fill="#919191"/>
        <path id="Path_10" data-name="Path 10" d="M686.316,453.017h6.016a2.917,2.917,0,0,1,.322.005.553.553,0,0,1,.5.593.533.533,0,0,1-.5.557,1.355,1.355,0,0,1-.179.006H680.123a.617.617,0,0,1-.528-.161.567.567,0,0,1-.133-.627.544.544,0,0,1,.515-.373c.2,0,.406,0,.609,0Z" transform="translate(-659.69 -430.978)" fill="#919191"/>
        <path id="Path_11" data-name="Path 11" d="M691.153,483.914l-.8,1.165-10.088-.008c-.576,0-.849-.184-.857-.575s.261-.59.838-.59Z" transform="translate(-659.682 -451.344)" fill="#919191"/>
        <path id="Path_12" data-name="Path 12" d="M688.94,499.3q-.046.6-.092,1.2l-8.657,0a.672.672,0,0,1-.739-.433.549.549,0,0,1,.216-.658.594.594,0,0,1,.4-.122Q684.5,499.3,688.94,499.3Z" transform="translate(-659.689 -461.49)" fill="#919191"/>
        <path id="Path_13" data-name="Path 13" d="M707.133,502.887a2.55,2.55,0,0,1,.061.934A2.75,2.75,0,0,1,707.133,502.887Z" transform="translate(-677.958 -463.859)" fill="#57b8e8"/>
        <path id="Rectangle_2" data-name="Rectangle 2" d="M4.333,0H21.523a0,0,0,0,1,0,0V3.912a4.333,4.333,0,0,1-4.333,4.333H0a0,0,0,0,1,0,0V4.333A4.333,4.333,0,0,1,4.333,0Z" transform="translate(15.102 13.792)" fill="#e3e3e3"/>
        <g transform="matrix(1, 0, 0, 1, -9.75, -6.75)" filter="url(#Ellipse_1)">
          <ellipse id="Ellipse_1-2" data-name="Ellipse 1" cx="12.672" cy="12.672" rx="12.672" ry="12.672" transform="translate(37.28 33.57)" fill="#22bdf4"/>
        </g>
        <g id="Group_3" data-name="Group 3" transform="translate(33.028 32.188)">
          <path id="Path_14" data-name="Path 14" d="M721.845,509.03a3.5,3.5,0,0,1-3.045-2.244,3.556,3.556,0,0,1,.676-4.007c.64-.715,1.346-1.372,2.032-2.045a.957.957,0,0,1,1.382-.031.946.946,0,0,1-.032,1.382c-.639.652-1.3,1.286-1.932,1.941a1.818,1.818,0,0,0,.958,3.072,1.767,1.767,0,0,0,1.646-.534c.642-.635,1.275-1.279,1.919-1.912a.918.918,0,0,1,1.121-.2.939.939,0,0,1,.523.932.965.965,0,0,1-.3.617c-.686.688-1.357,1.39-2.066,2.053A3.835,3.835,0,0,1,721.845,509.03Z" transform="translate(-718.461 -494.422)" fill="#fff"/>
          <path id="Path_15" data-name="Path 15" d="M741.606,482.811a3.464,3.464,0,0,1,2.933,2.231,3.557,3.557,0,0,1-.667,4.008c-.624.7-1.318,1.345-1.991,2a.952.952,0,0,1-1.382.018.935.935,0,0,1,.039-1.377c.62-.629,1.25-1.248,1.872-1.876a1.77,1.77,0,0,0,.449-1.979,1.728,1.728,0,0,0-1.626-1.169,1.762,1.762,0,0,0-1.387.565q-.956.96-1.916,1.914a.919.919,0,0,1-1.017.238.956.956,0,0,1-.352-1.573c.685-.689,1.355-1.392,2.066-2.053A3.883,3.883,0,0,1,741.606,482.811Z" transform="translate(-730.21 -482.809)" fill="#fff"/>
          <path id="Path_16" data-name="Path 16" d="M731.468,501.133a.918.918,0,0,1-.822-.464.892.892,0,0,1,0-.967,2.045,2.045,0,0,1,.315-.379q2.119-2.125,4.242-4.244c.528-.527,1.077-.586,1.511-.166s.389.99-.151,1.532q-2.138,2.146-4.283,4.285A1.109,1.109,0,0,1,731.468,501.133Z" transform="translate(-726.4 -490.606)" fill="#fff"/>
        </g>
      </g>
      <text id="by_True_Certificates" data-name="by True Certificates" transform="translate(200 95.312)" fill="#fff" font-size="15" font-family="Bahnschrift" font-weight="300"><tspan x="-48.197" y="0">by True Certificates</tspan></text>
      <g id="Group_505" data-name="Group 505" transform="translate(6.829 -290.441)">
        <path id="Path_173" data-name="Path 173" d="M145.171,363.8V324.582h3.99v35.51h9.8v3.7Z" fill="#fff"/>
        <path id="Path_174" data-name="Path 174" d="M162.726,363.8V324.582h3.933V363.8Z" transform="translate(1)" fill="#fff"/>
        <path id="Path_175" data-name="Path 175" d="M187.748,363.8l-10.43-29.184h-.228V363.8h-3.819V324.582h4.047l10.26,28.556h.285V324.582h3.762V363.8Z" transform="translate(2)" fill="#fff"/>
        <path id="Path_176" data-name="Path 176" d="M212.43,363.8l-6.783-18.012H202V363.8h-3.989V324.582H202v17.441h3.649l6.783-17.441h4.1l-7.694,19.151,7.752,20.064Z" transform="translate(3)" fill="#fff"/>
        <path id="Path_177" data-name="Path 177" d="M223.373,364.025a36.338,36.338,0,0,1-3.761-.569v-3.477a43.844,43.844,0,0,0,6.554.626,12.167,12.167,0,0,0,2.936-.285,3.717,3.717,0,0,0,1.852-1.083,3.785,3.785,0,0,0,.912-2.137,26.858,26.858,0,0,0,.229-3.962,35.55,35.55,0,0,0-.2-4.674,2.678,2.678,0,0,0-.911-1.795,7.184,7.184,0,0,0-2.708-.94l-5.415-1.083a3.951,3.951,0,0,1-2.565-1.54,6.563,6.563,0,0,1-1.083-3.078,44.267,44.267,0,0,1-.228-5.072q0-5.814,2.08-8.323t6.925-2.507a31.778,31.778,0,0,1,4.162.256,15.155,15.155,0,0,1,2.736.541v3.42a22.232,22.232,0,0,0-2.622-.4,31.877,31.877,0,0,0-3.249-.171,10.183,10.183,0,0,0-3.307.428,3.6,3.6,0,0,0-1.823,1.34,5.4,5.4,0,0,0-.741,2.166,24.772,24.772,0,0,0-.171,3.249,26.287,26.287,0,0,0,.2,3.876,2.837,2.837,0,0,0,.741,1.681,3.79,3.79,0,0,0,1.853.713l4.845,1.025a9.432,9.432,0,0,1,3.192,1.226,4.973,4.973,0,0,1,1.766,2.708,6.8,6.8,0,0,1,.428,2.222q.086,1.425.085,4.1a25.071,25.071,0,0,1-.74,6.869,6.341,6.341,0,0,1-2.594,3.676,9.964,9.964,0,0,1-5.387,1.2A38.336,38.336,0,0,1,223.373,364.025Z" transform="translate(4)" fill="#fff"/>
      </g>
    </g>
  </g>
</svg>
