<svg xmlns="http://www.w3.org/2000/svg" width="173.731" height="69.236" viewBox="0 0 173.731 69.236">
  <g id="Group_4196" data-name="Group 4196" transform="translate(-269.688 -31.983)">
    <g id="Group_4156" data-name="Group 4156" transform="translate(-508.142 -509.832)">
      <g id="Group_4154" data-name="Group 4154">
        <g id="Group_2" data-name="Group 2">
          <g id="Group_1" data-name="Group 1">
            <g id="Group_4149" data-name="Group 4149">
              <path id="Path_1-2" data-name="Path 1-2" d="M807.573,608.381h-1.479c-.212-.079-.422-.164-.636-.237a40.882,40.882,0,0,1-18.2-12.472,30.385,30.385,0,0,1-6.179-11.137,68.16,68.16,0,0,1-2.483-17.713,113.972,113.972,0,0,1,.608-13.836c.217-2.27.555-2.706,2.534-3.281q12-3.483,24-6.973a3.738,3.738,0,0,1,2.177,0c2.583.768,5.174,1.508,7.763,2.259q8.387,2.434,16.775,4.862a2.4,2.4,0,0,1,1.88,2.179c.438,3.567.631,7.154.727,10.744a87.048,87.048,0,0,1-.324,9.743,64.523,64.523,0,0,1-1.394,9.108,30.775,30.775,0,0,1-3.64,9.491,40.787,40.787,0,0,1-14.768,14.044A43.412,43.412,0,0,1,807.573,608.381Z" fill="#01288f" stroke="#fff" stroke-width="1.5"/>
            </g>
          </g>
        </g>
        <path id="Path_211" data-name="Path 211" d="M821.932,571.474a.391.391,0,0,1-.349.02,11.408,11.408,0,0,0-4.151-.36c-.12.01-.239.02-.319-.1.02-.11.11-.17.18-.26a.471.471,0,0,0-.01-.66.545.545,0,0,0-.24-.12,1.435,1.435,0,0,0-.46-.04h-17.34a1.285,1.285,0,0,0-.39.03.471.471,0,0,0,0,.93,2.328,2.328,0,0,0,.53.03h16.85a2.739,2.739,0,0,1,.639.03c.181.08.171.16-.009.22a5.593,5.593,0,0,1-.59.13,10.549,10.549,0,0,0-4.8,2.46,16.574,16.574,0,0,0-1.161,1.2.637.637,0,0,1-.38.24,3.1,3.1,0,0,1-.609.02h-9.98a2.45,2.45,0,0,0-.54.03.411.411,0,0,0-.36.42.423.423,0,0,0,.35.44,1.96,1.96,0,0,0,.54.03h9.229a2.431,2.431,0,0,1,.6.04c.23.13.1.29.019.42a11.194,11.194,0,0,0-.989,2.49c-.06.22-.1.44-.14.66-.08.23.009.53-.28.67a2.16,2.16,0,0,1-.57.03h-7.831a1.866,1.866,0,0,0-.529.04.453.453,0,0,0-.39.52.468.468,0,0,0,.37.39,2.435,2.435,0,0,0,.6.05h7.66a1.744,1.744,0,0,1,.56.03.292.292,0,0,1,.12.07c.15.3.01.63.109.93a11.571,11.571,0,0,0,.4,2.34.588.588,0,0,1,.03.32l.08.43a.788.788,0,0,1-.58.11h-8.33a2.469,2.469,0,0,0-.61.04.478.478,0,0,0-.431.5.467.467,0,0,0,.481.44,4.181,4.181,0,0,0,.5.01h8.91a.991.991,0,0,1,.63.13,11.416,11.416,0,0,0,2.78,3.4,1.456,1.456,0,0,1,.16.19l1.16.78h-17.91a1.409,1.409,0,0,1-1.38-1.29c-.11-.11-.06-.25-.06-.38,0-4.14-.07-8.28.01-12.42.03-1.4.17-3.66.14-6.31-.03-2.45-.041-3.67-.07-3.92a11.469,11.469,0,0,1-.05-2.27h-.06v-3.91a4.334,4.334,0,0,1,4.34-4.33H815.2v3.91c0,.74,1.308.874.978,1.483.25,0-1.028.527-.978.2.24.09.21.38.4.52a2.129,2.129,0,0,0,1.93.51,8.02,8.02,0,0,1,1.1-.05c.87.04,1.739-.09,2.61-.07.16,0,.34-.03.47.11a2.368,2.368,0,0,1,.21,1.17C821.932,566.594,821.923,569.034,821.932,571.474Z" fill="#dcdcdc"/>
        <path id="Path_212" data-name="Path 212" d="M821.723,562.964c-1.57.05-3.14.09-4.7.13a1.594,1.594,0,0,1-1.54-.64c-.171-.13-.18-.35-.29-.51v-5.57c.09-.04.119.02.16.06,1.37,1.36,2.73,2.73,4.1,4.1a.42.42,0,0,1,.09.14h.01c.7.68,1.4,1.36,2.1,2.06C821.693,562.774,821.923,562.834,821.723,562.964Z" fill="#247eab"/>
        <path id="Path_8" data-name="Path 8" d="M808.951,586.822h-9.984a.61.61,0,0,1-.673-.541v-.006a.639.639,0,0,1,.583-.655,2.154,2.154,0,0,1,.321-.009h9.2Z" fill="#7f7e7e"/>
        <path id="Path_9" data-name="Path 9" d="M817.134,571.051l-.14.006-12.281-.008h-5.729a.6.6,0,0,1-.617-.855.58.58,0,0,1,.472-.34,3.046,3.046,0,0,1,.357-.01h17.581c.328-.006.631.052.76.4C817.657,570.571,817.531,570.8,817.134,571.051Z" fill="#7f7e7e"/>
        <path id="Path_10" data-name="Path 10" d="M805.2,564.606h6.016a3.132,3.132,0,0,1,.322.005.553.553,0,0,1,.5.593.532.532,0,0,1-.5.557,1.334,1.334,0,0,1-.179.006H799.007a.615.615,0,0,1-.528-.161.567.567,0,0,1-.133-.627.545.545,0,0,1,.515-.373H805.2Z" fill="#7f7e7e"/>
        <path id="Path_11" data-name="Path 11" d="M810.045,575.137l-.8,1.165-10.088-.008c-.576,0-.849-.184-.857-.575s.261-.59.838-.59Z" fill="#7f7e7e"/>
        <path id="Path_12" data-name="Path 12" d="M807.825,580.377q-.047.6-.092,1.2h-8.657a.672.672,0,0,1-.739-.433.549.549,0,0,1,.216-.658.6.6,0,0,1,.4-.122Q803.386,580.377,807.825,580.377Z" fill="#7f7e7e"/>
        <g id="Group_4153" data-name="Group 4153">
          <g id="Group_4150" data-name="Group 4150">
            <path id="Path_2-2" data-name="Path 2-2" d="M818.44,594.437l7.354,13.4,1.4-7.232,6.091,3.059-7.214-13.74Z" fill="#f2b90f"/>
          </g>
          <g id="Group_4151" data-name="Group 4151">
            <path id="Path_3-2" data-name="Path 3-2" d="M817.589,594.437l-7.354,13.4-1.4-7.232-6.091,3.059,7.214-13.74Z" fill="#f2b90f"/>
          </g>
          <g id="Group_4152" data-name="Group 4152">
            <circle id="Ellipse_1-2" data-name="Ellipse 1-2" cx="12.672" cy="12.672" r="12.672" transform="translate(805.38 569.387)" fill="#22bdf4"/>
          </g>
          <g id="Group_3" data-name="Group 3">
            <path id="Path_14" data-name="Path 14" d="M814.262,589.363a3.5,3.5,0,0,1-3.045-2.244,3.554,3.554,0,0,1,.676-4.007c.64-.715,1.346-1.372,2.032-2.045a.957.957,0,0,1,1.352-.059l.03.028a.947.947,0,0,1,.014,1.338c-.015.015-.03.03-.046.044-.639.652-1.3,1.286-1.932,1.941a1.818,1.818,0,0,0,.958,3.072,1.765,1.765,0,0,0,1.646-.534c.642-.635,1.275-1.279,1.919-1.912a.919.919,0,0,1,1.121-.2.941.941,0,0,1,.523.932.964.964,0,0,1-.3.617c-.686.688-1.357,1.39-2.066,2.053A3.834,3.834,0,0,1,814.262,589.363Z" fill="#fff"/>
            <path id="Path_15" data-name="Path 15" d="M822.274,574.757a3.465,3.465,0,0,1,2.933,2.231A3.559,3.559,0,0,1,824.54,581c-.624.7-1.318,1.345-1.991,2a.952.952,0,0,1-1.346.054.4.4,0,0,1-.036-.036.935.935,0,0,1-.02-1.322c.019-.019.038-.037.059-.055.62-.629,1.25-1.248,1.872-1.876a1.772,1.772,0,0,0,.449-1.979,1.729,1.729,0,0,0-1.626-1.169,1.763,1.763,0,0,0-1.387.565q-.957.96-1.916,1.914a.92.92,0,0,1-1.018.238.957.957,0,0,1-.573-1.224.968.968,0,0,1,.221-.349c.685-.689,1.355-1.392,2.066-2.053A3.888,3.888,0,0,1,822.274,574.757Z" fill="#fff"/>
            <path id="Path_16" data-name="Path 16" d="M815.946,585.282a.916.916,0,0,1-.822-.464.891.891,0,0,1,0-.967,2.071,2.071,0,0,1,.315-.379q2.118-2.124,4.242-4.244c.528-.527,1.077-.586,1.511-.166s.389.99-.151,1.532q-2.139,2.147-4.283,4.285A1.108,1.108,0,0,1,815.946,585.282Z" fill="#fff"/>
          </g>
        </g>
      </g>
      <g id="Group_4155" data-name="Group 4155" transform="translate(-2)" style="isolation: isolate">
        <path id="Path_213" data-name="Path 213" d="M858.339,597.229h1.055v10.65h-1.055Zm1.578,10.412a1.652,1.652,0,0,1-.626-.955l.1-1.151a2.181,2.181,0,0,0,.142.835,1.126,1.126,0,0,0,.421.527,1.18,1.18,0,0,0,.667.183,1.135,1.135,0,0,0,.934-.413,1.813,1.813,0,0,0,.333-1.161v-2.915a1.746,1.746,0,0,0-.333-1.136,1.151,1.151,0,0,0-.934-.4,1.218,1.218,0,0,0-.667.176,1.087,1.087,0,0,0-.421.516,2.11,2.11,0,0,0-.142.817l-.155-1.026a2.061,2.061,0,0,1,.737-1.021,1.841,1.841,0,0,1,1.109-.37,1.688,1.688,0,0,1,.989.285,1.743,1.743,0,0,1,.622.832,3.637,3.637,0,0,1,.213,1.322v2.922a3.646,3.646,0,0,1-.223,1.344,1.8,1.8,0,0,1-.649.849,1.768,1.768,0,0,1-1.025.289A1.8,1.8,0,0,1,859.917,607.641Z" fill="#fff"/>
        <path id="Path_214" data-name="Path 214" d="M863.568,600.276h1.084l1.75,6.49-.387,1.619Zm5.193,0-2.505,9.382a1.852,1.852,0,0,1-.4.778,1.705,1.705,0,0,1-.722.46,3.254,3.254,0,0,1-1.066.155h-.081v-1h.081a1.415,1.415,0,0,0,.953-.293,1.8,1.8,0,0,0,.5-.9l2.154-8.591Z" fill="#fff"/>
        <path id="Path_215" data-name="Path 215" d="M871.925,597.229H877.1v.982h-5.171Zm2.058.873h1.055v9.777h-1.055Z" fill="#fff"/>
        <path id="Path_216" data-name="Path 216" d="M877.315,600.276h1.055v7.6h-1.055Zm3.465.85h-.037a2.594,2.594,0,0,0-1.691.509,1.913,1.913,0,0,0-.682,1.431l-.153-1.464a3.065,3.065,0,0,1,1.1-1.073,2.93,2.93,0,0,1,1.48-.384v.981Z" fill="#fff"/>
        <path id="Path_217" data-name="Path 217" d="M883.051,605.85a1.127,1.127,0,0,0,.314.853,1.483,1.483,0,0,0,1.791.008,1.209,1.209,0,0,0,.3-.891l.1.99a1.844,1.844,0,0,1-.649.885,1.78,1.78,0,0,1-1.044.293,1.721,1.721,0,0,1-1.373-.559A2.331,2.331,0,0,1,882,605.85v-5.574h1.048Zm2.4-5.574H886.5v7.6h-1.047Z" fill="#fff"/>
        <path id="Path_218" data-name="Path 218" d="M889.03,607.692a1.959,1.959,0,0,1-.791-.864,3.13,3.13,0,0,1-.274-1.366v-2.637a3.556,3.556,0,0,1,.267-1.45,2.012,2.012,0,0,1,.773-.916,2.261,2.261,0,0,1,1.216-.314,2.462,2.462,0,0,1,1.234.289,1.886,1.886,0,0,1,.776.845,3.084,3.084,0,0,1,.268,1.341v1.89h-3.89v-.982h2.835v-.879a1.746,1.746,0,0,0-.322-1.124,1.094,1.094,0,0,0-.9-.4,1.044,1.044,0,0,0-.886.421,1.971,1.971,0,0,0-.315,1.2v2.747a1.7,1.7,0,0,0,.33,1.117,1.137,1.137,0,0,0,.929.4,1.174,1.174,0,0,0,.875-.316,1.214,1.214,0,0,0,.312-.893v-.044h1.055v.044a2.161,2.161,0,0,1-.586,1.619,2.274,2.274,0,0,1-1.656.57A2.469,2.469,0,0,1,889.03,607.692Z" fill="#fff"/>
        <path id="Path_219" data-name="Path 219" d="M898.072,607.666a2.08,2.08,0,0,1-.849-.934,3.356,3.356,0,0,1-.293-1.468v-5.412a3.378,3.378,0,0,1,.293-1.476,2.107,2.107,0,0,1,.845-.935,2.945,2.945,0,0,1,2.678,0,2.086,2.086,0,0,1,.846.935,3.419,3.419,0,0,1,.289,1.468v.388h-1.055v-.388a2.314,2.314,0,0,0-.165-.922,1.253,1.253,0,0,0-.483-.583,1.572,1.572,0,0,0-1.538,0,1.288,1.288,0,0,0-.487.586,2.308,2.308,0,0,0-.169.927v5.412a2.29,2.29,0,0,0,.169.92,1.294,1.294,0,0,0,.487.586,1.572,1.572,0,0,0,1.538,0,1.256,1.256,0,0,0,.483-.582,2.321,2.321,0,0,0,.165-.924v-.388h1.055v.388a3.416,3.416,0,0,1-.289,1.468,2.068,2.068,0,0,1-.846.934,2.937,2.937,0,0,1-2.674,0Z" fill="#fff"/>
        <path id="Path_220" data-name="Path 220" d="M904.191,607.692a1.959,1.959,0,0,1-.791-.864,3.13,3.13,0,0,1-.274-1.366v-2.637a3.539,3.539,0,0,1,.268-1.45,2,2,0,0,1,.772-.916,2.261,2.261,0,0,1,1.216-.314,2.462,2.462,0,0,1,1.234.289,1.893,1.893,0,0,1,.777.845,3.1,3.1,0,0,1,.267,1.341v1.89h-3.889v-.982H906.6v-.879a1.746,1.746,0,0,0-.322-1.124,1.093,1.093,0,0,0-.9-.4,1.044,1.044,0,0,0-.886.421,1.972,1.972,0,0,0-.315,1.2v2.747a1.7,1.7,0,0,0,.33,1.117,1.137,1.137,0,0,0,.929.4,1.175,1.175,0,0,0,.875-.316,1.214,1.214,0,0,0,.312-.893v-.044h1.055v.044a2.161,2.161,0,0,1-.586,1.619,2.274,2.274,0,0,1-1.656.57A2.47,2.47,0,0,1,904.191,607.692Z" fill="#fff"/>
        <path id="Path_221" data-name="Path 221" d="M909.146,600.276H910.2v7.6h-1.055Zm3.465.85h-.037a2.594,2.594,0,0,0-1.691.509,1.913,1.913,0,0,0-.682,1.431l-.153-1.464a3.065,3.065,0,0,1,1.1-1.073,2.93,2.93,0,0,1,1.48-.384v.981Z" fill="#fff"/>
        <path id="Path_222" data-name="Path 222" d="M913.248,600.276h3.281v.982h-3.281Zm1.212,7.13a2.289,2.289,0,0,1-.428-1.505v-7.837h1.055v7.852a1.145,1.145,0,0,0,.22.754.8.8,0,0,0,.651.264h.571v.982h-.717A1.669,1.669,0,0,1,914.46,607.406Z" fill="#fff"/>
        <path id="Path_223" data-name="Path 223" d="M917.929,597.646h1.054V598.7h-1.054Zm0,2.63h1.054v7.6h-1.054Z" fill="#fff"/>
        <path id="Path_224" data-name="Path 224" d="M920.162,600.276h3.509v.909h-3.509Zm.806-1.032a2.092,2.092,0,0,1,.494-1.487,1.83,1.83,0,0,1,1.4-.528h.806v.982H922.9a.8.8,0,0,0-.645.268,1.122,1.122,0,0,0-.228.75v8.65h-1.054Z" fill="#fff"/>
        <path id="Path_225" data-name="Path 225" d="M924.923,597.646h1.055V598.7h-1.055Zm0,2.63h1.055v7.6h-1.055Z" fill="#fff"/>
        <path id="Path_226" data-name="Path 226" d="M928.651,607.722a1.837,1.837,0,0,1-.784-.777,2.607,2.607,0,0,1-.27-1.234v-3.179a2.834,2.834,0,0,1,.27-1.289,1.872,1.872,0,0,1,.788-.816,2.542,2.542,0,0,1,1.241-.282,2.576,2.576,0,0,1,1.252.282,1.851,1.851,0,0,1,.791.82,2.857,2.857,0,0,1,.272,1.3v.058h-1v-.058a1.5,1.5,0,0,0-.337-1.047,1.212,1.212,0,0,0-.952-.374,1.2,1.2,0,0,0-.934.366,1.492,1.492,0,0,0-.333,1.04v3.179a1.316,1.316,0,0,0,.329.959,1.472,1.472,0,0,0,1.89-.011,1.342,1.342,0,0,0,.337-.977v-.059h1.019v.059a2.634,2.634,0,0,1-.275,1.249,1.852,1.852,0,0,1-.8.787,3.052,3.052,0,0,1-2.5,0Z" fill="#fff"/>
        <path id="Path_227" data-name="Path 227" d="M933.785,607.458a2.267,2.267,0,0,1-.5-1.6,2.744,2.744,0,0,1,.583-1.915,2.278,2.278,0,0,1,1.761-.633h1.355l.1.761h-1.45a1.23,1.23,0,0,0-1.04.448,2.169,2.169,0,0,0-.345,1.339,1.442,1.442,0,0,0,.315,1.018,1.228,1.228,0,0,0,.945.338,1.391,1.391,0,0,0,1.054-.37,1.566,1.566,0,0,0,.352-1.117l.154.629a1.925,1.925,0,0,1-.209.909,1.262,1.262,0,0,1-.6.546,2.411,2.411,0,0,1-.99.178A1.953,1.953,0,0,1,933.785,607.458Zm3.135-5.145a1.281,1.281,0,0,0-.34-.953,1.316,1.316,0,0,0-.964-.337,1.089,1.089,0,0,0-.852.337,1.372,1.372,0,0,0-.3.953h-1.018a2.141,2.141,0,0,1,.579-1.6,2.234,2.234,0,0,1,1.633-.567,2.672,2.672,0,0,1,1.216.255,1.766,1.766,0,0,1,.769.741,2.425,2.425,0,0,1,.263,1.172v5.566h-.981Z" fill="#fff"/>
        <path id="Path_228" data-name="Path 228" d="M938.927,600.276h3.281v.982h-3.281Zm1.212,7.13a2.289,2.289,0,0,1-.428-1.505v-7.837h1.055v7.852a1.151,1.151,0,0,0,.219.754.8.8,0,0,0,.652.264h.571v.982h-.718A1.668,1.668,0,0,1,940.139,607.406Z" fill="#fff"/>
        <path id="Path_229" data-name="Path 229" d="M944.372,607.692a1.954,1.954,0,0,1-.791-.864,3.116,3.116,0,0,1-.274-1.366v-2.637a3.556,3.556,0,0,1,.267-1.45,2.012,2.012,0,0,1,.773-.916,2.261,2.261,0,0,1,1.215-.314,2.463,2.463,0,0,1,1.235.289,1.885,1.885,0,0,1,.776.845,3.084,3.084,0,0,1,.268,1.341v1.89h-3.89v-.982h2.835v-.879a1.745,1.745,0,0,0-.322-1.124,1.1,1.1,0,0,0-.9-.4,1.043,1.043,0,0,0-.885.421,1.971,1.971,0,0,0-.316,1.2v2.747a1.71,1.71,0,0,0,.33,1.117,1.14,1.14,0,0,0,.93.4,1.174,1.174,0,0,0,.875-.316,1.214,1.214,0,0,0,.312-.893v-.044h1.054v.044a2.157,2.157,0,0,1-.586,1.619,2.27,2.27,0,0,1-1.655.57A2.469,2.469,0,0,1,944.372,607.692Z" fill="#fff"/>
        <path id="Path_230" data-name="Path 230" d="M950.492,607.988l-.51-.252a1.681,1.681,0,0,1-.764-.757,2.793,2.793,0,0,1-.257-1.268h.975a1.44,1.44,0,0,0,.329,1.033,1.314,1.314,0,0,0,1,.344,1.167,1.167,0,0,0,1.326-1.318,1,1,0,0,0-.14-.549,1.062,1.062,0,0,0-.373-.356,3.126,3.126,0,0,0-.586-.253c-.034-.009-.07-.02-.106-.033s-.074-.022-.113-.032a.646.646,0,0,0-.078-.026l-.077-.019a7.464,7.464,0,0,1-1.069-.4,1.769,1.769,0,0,1-.7-.623,2,2,0,0,1-.289-1.15,2.779,2.779,0,0,1,.237-1.219,1.558,1.558,0,0,1,.715-.728,2.609,2.609,0,0,1,1.193-.242,2.7,2.7,0,0,1,1.194.234,1.539,1.539,0,0,1,.714.707,2.609,2.609,0,0,1,.239,1.183h-.975a1.277,1.277,0,0,0-.293-.919,1.162,1.162,0,0,0-.879-.3,1.146,1.146,0,0,0-.879.315,1.347,1.347,0,0,0-.293.945,1.041,1.041,0,0,0,.18.633,1.217,1.217,0,0,0,.465.385,4.411,4.411,0,0,0,.725.264.247.247,0,0,0,.047.011.307.307,0,0,1,.048.011.159.159,0,0,0,.033.011l.034,0a6.375,6.375,0,0,1,1.04.37,1.7,1.7,0,0,1,.68.619,2.09,2.09,0,0,1,.279,1.158,2.684,2.684,0,0,1-.253,1.238,1.615,1.615,0,0,1-.765.735,2.961,2.961,0,0,1-1.282.245Z" fill="#fff"/>
      </g>
      <g id="Group_505" data-name="Group 505" transform="translate(-2)">
        <path id="Path_173" data-name="Path 173" d="M857.73,585.926V546.708h3.99v35.51h9.8v3.7Z" fill="#fff"/>
        <path id="Path_174" data-name="Path 174" d="M876.285,585.926V546.708h3.933v39.218Z" fill="#fff"/>
        <path id="Path_175" data-name="Path 175" d="M902.307,585.926l-10.43-29.184h-.228v29.184H887.83V546.708h4.047l10.26,28.556h.285V546.708h3.762v39.218Z" fill="#fff"/>
        <path id="Path_176" data-name="Path 176" d="M927.989,585.926l-6.783-18.012h-3.647v18.012H913.57V546.708h3.989v17.441h3.649l6.783-17.441h4.1L924.4,565.859l7.752,20.064Z" fill="#fff"/>
        <path id="Path_177" data-name="Path 177" d="M939.932,586.151a36.144,36.144,0,0,1-3.761-.569V582.1a43.78,43.78,0,0,0,6.554.626,12.132,12.132,0,0,0,2.936-.285,3.714,3.714,0,0,0,1.852-1.083,3.79,3.79,0,0,0,.912-2.137,26.908,26.908,0,0,0,.229-3.962,35.6,35.6,0,0,0-.2-4.674,2.682,2.682,0,0,0-.911-1.8,7.2,7.2,0,0,0-2.708-.94l-5.415-1.083a3.948,3.948,0,0,1-2.565-1.54,6.564,6.564,0,0,1-1.083-3.078,44.286,44.286,0,0,1-.228-5.072q0-5.814,2.08-8.323t6.925-2.507a31.81,31.81,0,0,1,4.162.256,15.157,15.157,0,0,1,2.736.541v3.42a22.32,22.32,0,0,0-2.622-.4,32.055,32.055,0,0,0-3.249-.171,10.194,10.194,0,0,0-3.307.428,3.6,3.6,0,0,0-1.823,1.34,5.4,5.4,0,0,0-.741,2.166,24.85,24.85,0,0,0-.171,3.249,26.284,26.284,0,0,0,.2,3.876,2.835,2.835,0,0,0,.741,1.681,3.783,3.783,0,0,0,1.853.713l4.845,1.025a9.447,9.447,0,0,1,3.192,1.226,4.976,4.976,0,0,1,1.766,2.708,6.81,6.81,0,0,1,.428,2.222q.086,1.425.085,4.1a25.1,25.1,0,0,1-.74,6.869,6.337,6.337,0,0,1-2.594,3.676,9.95,9.95,0,0,1-5.387,1.2A38.289,38.289,0,0,1,939.932,586.151Z" fill="#fff"/>
      </g>
    </g>
  </g>
</svg>
