<svg xmlns="http://www.w3.org/2000/svg" width="248.712" height="86" viewBox="0 0 248.712 86">
  <g id="Group_4195" data-name="Group 4195" transform="translate(-4914 4310.802)">
    <g id="Group_216" data-name="Group 216" transform="translate(4056.445 -4151.74)">
      <text id="Links" transform="translate(937.267 -89.062)" fill="#fff" font-size="65" font-family="SegoeUI, Segoe UI"><tspan x="0" y="0">LINKS</tspan></text>
      <g id="Group_158" data-name="Group 158" transform="translate(857.555 -147.062)">
        <path id="Path_1" data-name="Path 1" d="M650.519,454.144h-1.479c-.212-.079-.422-.164-.636-.237a40.9,40.9,0,0,1-18.2-12.472,30.381,30.381,0,0,1-6.178-11.137,68.152,68.152,0,0,1-2.483-17.713,114.161,114.161,0,0,1,.608-13.836c.217-2.271.555-2.706,2.534-3.281q12-3.484,24-6.973a3.727,3.727,0,0,1,2.177,0c2.583.768,5.175,1.508,7.763,2.259q8.387,2.434,16.775,4.862a2.4,2.4,0,0,1,1.88,2.179c.438,3.567.631,7.154.727,10.744a87.138,87.138,0,0,1-.324,9.743,64.676,64.676,0,0,1-1.394,9.108,30.8,30.8,0,0,1-3.64,9.491,40.794,40.794,0,0,1-14.768,14.044A43.482,43.482,0,0,1,650.519,454.144Z" transform="translate(-621.518 -388.332)" fill="#fff"/>
        <g id="Group_157" data-name="Group 157" transform="translate(12.198 12.215)">
          <g id="writing" transform="translate(0)">
            <g id="Group_155" data-name="Group 155" transform="translate(0)">
              <g id="Group_154" data-name="Group 154">
                <path id="Path_71" data-name="Path 71" d="M125.555,201.553A1.553,1.553,0,0,0,124,200H108.012a1.553,1.553,0,0,0,0,3.105H124A1.552,1.552,0,0,0,125.555,201.553Z" transform="translate(-100.258 -184.475)" fill="#052885"/>
                <path id="Path_72" data-name="Path 72" d="M108.012,280a1.553,1.553,0,1,0,0,3.105h9.712a1.553,1.553,0,0,0,0-3.105Z" transform="translate(-100.258 -258.265)" fill="#052885"/>
                <path id="Path_73" data-name="Path 73" d="M37.972,36.64H32.78a3.109,3.109,0,0,1-3.105-3.105V6.21A3.109,3.109,0,0,1,32.78,3.105H51.867A3.109,3.109,0,0,1,54.973,6.21v9.548a1.553,1.553,0,0,0,3.105,0V6.21A6.217,6.217,0,0,0,51.867,0H32.78a6.217,6.217,0,0,0-6.21,6.21V33.534a6.217,6.217,0,0,0,6.21,6.21h5.192a1.553,1.553,0,1,0,0-3.105Z" transform="translate(-26.57)" fill="#052885"/>
                <path id="Path_75" data-name="Path 75" d="M124,120H108.012a1.553,1.553,0,1,0,0,3.105H124A1.553,1.553,0,0,0,124,120Z" transform="translate(-100.258 -110.685)" fill="#052885"/>
              </g>
            </g>
          </g>
          <g id="Group_156" data-name="Group 156" transform="translate(14.969 19.872)">
            <path id="Path_14" data-name="Path 14" d="M723.743,513.861a5.466,5.466,0,0,1-4.754-3.5,5.552,5.552,0,0,1,1.055-6.256c1-1.116,2.1-2.142,3.173-3.193a1.5,1.5,0,0,1,2.158-.048,1.477,1.477,0,0,1-.049,2.158c-1,1.018-2.022,2.008-3.017,3.03a2.838,2.838,0,0,0,1.5,4.8,2.759,2.759,0,0,0,2.57-.834c1-.991,1.99-2,3-2.986a1.433,1.433,0,0,1,1.751-.305,1.466,1.466,0,0,1,.816,1.455,1.506,1.506,0,0,1-.46.964c-1.071,1.073-2.119,2.171-3.225,3.206A5.99,5.99,0,0,1,723.743,513.861Z" transform="translate(-718.461 -491.054)" fill="#ff3a00"/>
            <path id="Path_15" data-name="Path 15" d="M744.595,482.811a5.41,5.41,0,0,1,4.579,3.483,5.553,5.553,0,0,1-1.042,6.258c-.975,1.1-2.057,2.1-3.109,3.128a1.485,1.485,0,0,1-2.156.029,1.46,1.46,0,0,1,.06-2.15c.969-.982,1.952-1.949,2.923-2.929a2.763,2.763,0,0,0,.7-3.09,2.7,2.7,0,0,0-2.539-1.824,2.751,2.751,0,0,0-2.166.882q-1.492,1.5-2.992,2.988a1.435,1.435,0,0,1-1.588.371,1.492,1.492,0,0,1-.549-2.455c1.069-1.075,2.116-2.173,3.225-3.2A6.063,6.063,0,0,1,744.595,482.811Z" transform="translate(-726.802 -482.809)" fill="#ff3a00"/>
            <path id="Path_16" data-name="Path 16" d="M732.01,504.78a1.434,1.434,0,0,1-1.283-.725,1.392,1.392,0,0,1,0-1.51,3.173,3.173,0,0,1,.492-.592q3.308-3.317,6.623-6.626c.824-.823,1.682-.915,2.359-.259s.608,1.545-.236,2.392q-3.338,3.35-6.687,6.69A1.732,1.732,0,0,1,732.01,504.78Z" transform="translate(-724.098 -488.344)" fill="#ff3a00"/>
          </g>
        </g>
      </g>
    </g>
  </g>
</svg>
