<?xml version="1.0" encoding="utf-8"?>
<!-- Svg Vector Icons : http://www.onlinewebfonts.com/icon -->
<!DOCTYPE svg PUBLIC "-//W3C//DTD SVG 1.1//EN" "http://www.w3.org/Graphics/SVG/1.1/DTD/svg11.dtd">
<svg version="1.1" width="25" height="25" xmlns="http://www.w3.org/2000/svg" xmlns:xlink="http://www.w3.org/1999/xlink" x="0px" y="0px" viewBox="0 0 1000 1000" enable-background="new 0 0 1000 1000" xml:space="preserve">
<metadata> Svg Vector Icons : http://www.onlinewebfonts.com/icon </metadata>
<g><path d="M10,34.4L10,34.4L10,34.4z"/><path d="M892,83.4H108c-53.9,0-98,44.1-98,98v588c0,53.9,44.1,97,98,97h195v-96H107V318.6h786v451.8H697v96h195c53.9,0,98-43.1,98-97v-588C990,127.5,945.9,83.4,892,83.4z M137.4,246.6c-20.3,0-36.7-16-36.7-35.8c0-19.7,16.4-35.8,36.7-35.8s36.8,16,36.8,35.8C174.1,230.6,157.7,246.6,137.4,246.6z M235.4,246.6c-20.3,0-36.8-16-36.8-35.8c0-19.7,16.4-35.8,36.8-35.8c20.3,0,36.7,16,36.7,35.8C272.1,230.6,255.7,246.6,235.4,246.6z M893,241.2H303v-60.8h590V241.2z M497.4,435L259.7,671.3h147v294.2h181.5V671.3h147L497.4,435L497.4,435z"/></g>
</svg>