<?xml version="1.0" encoding="utf-8"?>
<!-- Svg Vector Icons : http://www.onlinewebfonts.com/icon -->
<!DOCTYPE svg PUBLIC "-//W3C//DTD SVG 1.1//EN" "http://www.w3.org/Graphics/SVG/1.1/DTD/svg11.dtd">
<svg version="1.1" width="25" height="25"  xmlns="http://www.w3.org/2000/svg" xmlns:xlink="http://www.w3.org/1999/xlink" x="0px" y="0px" viewBox="0 0 1000 1000" enable-background="new 0 0 1000 1000" xml:space="preserve">
<metadata> Svg Vector Icons : http://www.onlinewebfonts.com/icon </metadata>
<g><path d="M693.7,529.9L693.7,529.9"/><path d="M824.8,979.1h-687C76.9,979.1,10,912.4,10,851.5V262.6c0-61.6,65.8-94.8,127.7-94.8h376.3c25.1,0,45.8,20.5,45.8,45.8c0,25.4-20.6,46.1-45.8,46.1H137.7c-25.4,0-35.1,4.1-36.8,5.6l1,586.2c0.7,8.2,21.3,35.8,35.8,35.8h683c2.5-4.1,6.9-15.3,6.9-35.8V491.8c0-25.5,20.8-46.2,46.2-46.2c25.1,0,45.8,20.7,45.8,46.2v359.7C919.6,931.4,871.3,979.1,824.8,979.1z M413.6,744.9c-20.5,0-38.3-13.3-44.2-33.3c-0.5-1.9-56.4-195.4,59.4-333.8c75.9-90.6,204.2-133.8,382.2-129L661.2,99c-18-18.2-18-46.7-0.1-64.9c17.5-17.7,47.8-17.7,65.2,0L990,297.4l-265.6,234c-19.1,16.7-49.2,14.4-65-4c-16.8-19.1-15-48.3,4.1-64.9l138.3-121.8c-144.2-3.2-246.3,29.1-302.3,96.1c-79.4,95-45.6,233.7-41.5,249.2c7.1,24-6.9,49.6-31.3,56.9C422.3,744.2,417.9,744.9,413.6,744.9z"/></g>
</svg>