<svg xmlns="http://www.w3.org/2000/svg" width="1290" height="113" viewBox="0 0 1290 113"><defs><mask id="m5ypb" width="2" height="2" x="-1" y="-1"><path fill="#fff" d="M5 2h1280v76H5z"/><path d="M5 78V2h1280v76z"/></mask><filter id="m5ypa" width="1312" height="111" x="-11" y="-14" filterUnits="userSpaceOnUse"><feOffset dy="3" in="SourceGraphic" result="FeOffset1041Out"/><feGaussianBlur in="FeOffset1041Out" result="FeGaussianBlur1042Out" stdDeviation="2.4 2.4"/></filter></defs><g><g><g filter="url(#m5ypa)"><path fill="none" d="M5 78V2h1280v76z" mask="url(&quot;#m5ypb&quot;)"/><path fill-opacity=".16" d="M5 78V2h1280v76z"/></g><path fill="#ff3a00" d="M5 78V2h1280v76z"/></g><g><path fill="#01288f" d="M5 2h1280v69l-974.449-.116s-21.608-.498-28.65 1.343c-7.042 1.841-11.01 3.135-21.125 9.052s-19.402 14.574-19.402 14.574-13.672 10.334-23.617 13.657c-9.946 3.324-35.173 3.006-35.173 3.006H5z"/></g></g></svg>