<?xml version="1.0" encoding="utf-8"?>
<!-- Svg Vector Icons : http://www.onlinewebfonts.com/icon -->
<!DOCTYPE svg PUBLIC "-//W3C//DTD SVG 1.1//EN" "http://www.w3.org/Graphics/SVG/1.1/DTD/svg11.dtd">
<svg version="1.1" width="25" height="25" xmlns="http://www.w3.org/2000/svg" xmlns:xlink="http://www.w3.org/1999/xlink" x="0px" y="0px" viewBox="0 0 1000 1000" enable-background="new 0 0 1000 1000" xml:space="preserve">
<metadata> Svg Vector Icons : http://www.onlinewebfonts.com/icon </metadata>
<g><path d="M990,502.6L990,502.6L990,502.6c0,2.6,0,2.6,0,2.6l0,0l0,0c0,7.7-5.2,15.5-10.3,20.6c-10.3,12.9-20.6,23.2-33.5,36.1c-61.9,61.9-131.6,116.1-209,157.4c-49,25.8-100.6,46.5-154.8,56.8c-59.4,10.3-118.7,10.3-178.1-2.6C301,750.3,208.1,696.1,125.5,629c-38.7-31-74.8-64.5-105.8-103.2c-12.9-15.5-12.9-36.1,0-51.6C30,461.3,40.3,451,53.2,438.1c61.9-61.9,131.6-116.1,209-157.4c49-25.8,100.6-46.5,154.8-56.8c59.4-10.3,118.7-10.3,178.1,2.6c103.2,23.2,196.1,77.4,278.7,144.5c38.7,31,74.8,64.5,105.8,103.2c5.2,5.2,10.3,12.9,10.3,20.6l0,0l0,0l0,0l0,0l0,0C990,500,990,500,990,502.6C990,500,990,500,990,502.6z M499.7,309c-100.6,0-183.2,82.6-183.2,183.2c0,100.6,82.6,183.2,183.2,183.2s183.2-82.6,183.2-183.2C682.9,391.6,600.3,309,499.7,309z M499.7,585.2c-51.6,0-92.9-41.3-92.9-92.9c0-51.6,41.3-92.9,92.9-92.9c51.6,0,92.9,41.3,92.9,92.9C592.6,543.9,551.3,585.2,499.7,585.2z"/></g>
</svg>